name D:\school\WTK\thesis\model\3dpredictsim\Results\MidTarsalJoint\Fal_s1_bCst_PF_Natali2010_ls150_MT_k300_d010_MTP_T5_ig24.mot
datacolumns 128
datarows 4
range 1.70329085 1.73735666
endheader
time	pelvis_tilt	pelvis_list	pelvis_rotation	pelvis_tx	pelvis_ty	pelvis_tz	hip_flexion_l	hip_adduction_l	hip_rotation_l	hip_flexion_r	hip_adduction_r	hip_rotation_r	knee_angle_l	knee_angle_r	ankle_angle_l	ankle_angle_r	subtalar_angle_l	subtalar_angle_r	mtj_angle_l	mtj_angle_r	mtp_angle_l	mtp_angle_r	lumbar_extension	lumbar_bending	lumbar_rotation	arm_flex_l	arm_add_l	arm_rot_l	arm_flex_r	arm_add_r	arm_rot_r	elbow_flex_l	elbow_flex_r	pro_sup_l	pro_sup_r	glut_med1_l/activation	glut_med2_l/activation	glut_med3_l/activation	glut_min1_l/activation	glut_min2_l/activation	glut_min3_l/activation	semimem_l/activation	semiten_l/activation	bifemlh_l/activation	bifemsh_l/activation	sar_l/activation	add_long_l/activation	add_brev_l/activation	add_mag1_l/activation	add_mag2_l/activation	add_mag3_l/activation	tfl_l/activation	pect_l/activation	grac_l/activation	glut_max1_l/activation	glut_max2_l/activation	glut_max3_l/activation	iliacus_l/activation	psoas_l/activation	quad_fem_l/activation	gem_l/activation	peri_l/activation	rect_fem_l/activation	vas_med_l/activation	vas_int_l/activation	vas_lat_l/activation	med_gas_l/activation	lat_gas_l/activation	soleus_l/activation	tib_post_l/activation	flex_dig_l/activation	flex_hal_l/activation	tib_ant_l/activation	per_brev_l/activation	per_long_l/activation	per_tert_l/activation	ext_dig_l/activation	ext_hal_l/activation	ercspn_l/activation	intobl_l/activation	extobl_l/activation	glut_med1_r/activation	glut_med2_r/activation	glut_med3_r/activation	glut_min1_r/activation	glut_min2_r/activation	glut_min3_r/activation	semimem_r/activation	semiten_r/activation	bifemlh_r/activation	bifemsh_r/activation	sar_r/activation	add_long_r/activation	add_brev_r/activation	add_mag1_r/activation	add_mag2_r/activation	add_mag3_r/activation	tfl_r/activation	pect_r/activation	grac_r/activation	glut_max1_r/activation	glut_max2_r/activation	glut_max3_r/activation	iliacus_r/activation	psoas_r/activation	quad_fem_r/activation	gem_r/activation	peri_r/activation	rect_fem_r/activation	vas_med_r/activation	vas_int_r/activation	vas_lat_r/activation	med_gas_r/activation	lat_gas_r/activation	soleus_r/activation	tib_post_r/activation	flex_dig_r/activation	flex_hal_r/activation	tib_ant_r/activation	per_brev_r/activation	per_long_r/activation	per_tert_r/activation	ext_dig_r/activation	ext_hal_r/activation	ercspn_r/activation	intobl_r/activation	extobl_r/activation	
          1.70329085	         -2.92992812	          2.18111965	         -5.22514099	          2.12911356	          0.91926133	          0.00166040	         29.58974531	          3.47788483	         -1.80602351	        -16.75421908	         -1.07629512	          6.69548240	        -11.50886540	         -7.63620213	          5.81386296	         -1.81230847	         -5.08227143	          8.43432841	         -0.03477373	          5.08100159	         -0.85257691	         11.16133507	         -1.98904842	         -0.30373635	          2.02413735	         -4.22569648	        -13.45766483	          7.77571986	          5.38953174	        -13.45423073	         17.44086328	         15.84941231	         32.63945251	         86.51662706	         86.51662706	          0.07990889	          0.05000093	          0.05946345	          0.05000040	          0.05000053	          0.05000296	          0.20971752	          0.05946390	          0.05997475	          0.05000159	          0.05000181	          0.09451990	          0.21382051	          0.20815795	          0.16095153	          0.10742713	          0.05946321	          0.05001137	          0.07771810	          0.06862407	          0.07072572	          0.11353209	          0.05000029	          0.05000037	          0.24949173	          0.05115305	          0.05000182	          0.05000054	          0.08452174	          0.08539453	          0.07243712	          0.05269938	          0.05000491	          0.05946236	          0.05000046	          0.05000215	          0.05000219	          0.47528487	          0.29119889	          0.18092380	          0.11150031	          0.46170779	          0.12895395	          0.05946300	          0.13135439	          0.11397511	          0.31844954	          0.10809023	          0.08407841	          0.31313753	          0.21432501	          0.11894156	          0.05000405	          0.05000082	          0.05000057	          0.06267599	          0.11751324	          0.05000036	          0.05000037	          0.05000051	          0.05000161	          0.05000143	          0.33317282	          0.05000157	          0.05000113	          0.05003437	          0.05001161	          0.05000354	          0.41749851	          0.62544706	          0.05000058	          0.05000273	          0.05488445	          0.23197347	          0.05000307	          0.05000185	          0.05000174	          0.30565620	          0.41841460	          0.34766718	          0.27372375	          0.27346112	          0.35973579	          0.05000020	          0.05629346	          0.13305957	          0.05000099	          0.05000029	          0.05000100	          0.05000004	          0.05000007	          0.05000017	
          1.71464612	         -2.92939451	          2.26826275	         -5.51071821	          2.14609201	          0.91831671	          0.00146118	         28.97167668	          3.83873208	         -1.61017364	        -16.69862855	         -1.37806259	          6.48808412	        -11.40936700	         -9.41982671	          5.21553164	         -2.32508271	         -5.46493938	          9.41606142	         -0.01374474	          4.31150113	         -0.85884171	         12.78307310	         -1.79947921	         -0.50087421	          2.09750983	         -5.10889436	        -13.45533669	          7.46683762	          5.14500902	        -13.46702406	         17.80273270	         15.47139469	         33.80873805	         86.51662706	         86.51662706	          0.06719307	          0.05000452	          0.05000100	          0.05946361	          0.05946050	          0.05000202	          0.17789123	          0.05000132	          0.05043070	          0.05000138	          0.05000900	          0.10712942	          0.21097910	          0.23406053	          0.17643511	          0.10665170	          0.05000103	          0.05046364	          0.06535163	          0.05770408	          0.05947089	          0.12368996	          0.05814177	          0.05094133	          0.54455380	          0.14888592	          0.10321335	          0.07071782	          0.19003756	          0.18980260	          0.16309899	          0.05000008	          0.05000018	          0.05000003	          0.05000138	          0.05000352	          0.05000366	          0.53861682	          0.24486076	          0.19722832	          0.29061449	          0.48875073	          0.14331437	          0.05000034	          0.11045107	          0.09583748	          0.26777288	          0.09088917	          0.07069867	          0.26330620	          0.18021822	          0.10001377	          0.05000722	          0.05000180	          0.05000205	          0.05270224	          0.09881348	          0.09688788	          0.07071248	          0.05018253	          0.05001399	          0.05000729	          0.28015330	          0.08373933	          0.05017817	          0.05000932	          0.05000726	          0.05000631	          0.35105933	          0.57285521	          0.05001095	          0.05946233	          0.05946326	          0.19505833	          0.05000597	          0.15127985	          0.13580355	          0.25701500	          0.35182955	          0.31105292	          0.24654125	          0.22994706	          0.30368669	          0.05000023	          0.05000139	          0.13518214	          0.05000084	          0.05000025	          0.05000105	          0.05000032	          0.07071648	          0.05000057	
          1.72600139	         -2.92512057	          2.35453272	         -5.76876915	          2.16340888	          0.91741731	          0.00128063	         28.24101234	          4.13090567	         -1.35725143	        -16.58403952	         -1.67830963	          6.27472841	        -11.80459346	        -11.29482614	          4.61138638	         -2.96928286	         -5.86215901	         10.36584424	         -0.16969120	          3.38519972	         -0.87546264	         14.50611709	         -1.58748902	         -0.70695676	          2.15994686	         -6.03088223	        -13.45849553	          7.20181884	          4.81260593	        -13.47939361	         18.07816327	         15.15313729	         34.97612521	         86.51662706	         86.51662706	          0.25011469	          0.05000037	          0.18311929	          0.05000113	          0.05000054	          0.20068255	          0.16594238	          0.06739154	          0.06915503	          0.05000058	          0.05000212	          0.09008173	          0.19486580	          0.19681382	          0.14835921	          0.12204166	          0.05000220	          0.05946750	          0.10347294	          0.05000071	          0.05000729	          0.10400693	          0.05946015	          0.05000507	          0.45789521	          0.12519292	          0.14764606	          0.05946404	          0.15979575	          0.15959818	          0.13714408	          0.05801282	          0.05946173	          0.05768384	          0.05000175	          0.05000421	          0.05000438	          0.48092966	          0.29516758	          0.16584233	          0.24436779	          0.52462067	          0.12050789	          0.05000009	          0.11891644	          0.08058621	          0.32063083	          0.07642542	          0.05944807	          0.22140516	          0.15153908	          0.08409803	          0.05000624	          0.05000211	          0.05000170	          0.05000054	          0.08308959	          0.13199462	          0.05947127	          0.05946503	          0.05946292	          0.05946141	          0.23557175	          0.08370941	          0.05002564	          0.05001670	          0.05001713	          0.05534123	          0.29519465	          0.55132791	          0.05320773	          0.05000505	          0.05000078	          0.16401743	          0.12760780	          0.12720838	          0.11419436	          0.21611440	          0.29584049	          0.26155288	          0.20730771	          0.19335469	          0.25535963	          0.05000006	          0.05000788	          0.16235919	          0.05000038	          0.05000015	          0.05000046	          0.05050209	          0.05946290	          0.05946282	
          1.73735666	         -2.91891539	          2.44179060	         -5.99223826	          2.18089395	          0.91658460	          0.00109640	         27.40913401	          4.37462974	         -1.09572372	        -16.38726659	         -1.97499066	          6.06190334	        -12.21644216	        -13.27980169	          4.04713240	         -3.76705881	         -6.25302077	         11.26694461	         -0.16710072	          2.35548878	         -0.84095990	         16.24428698	         -1.37057930	         -0.92339618	          2.21311916	         -6.95006556	        -13.46637690	          6.99533665	          4.41520153	        -13.49351702	         18.27337012	         14.87162111	         36.13254588	         86.51662706	         86.51662706	          0.31788036	          0.26906339	          0.31180941	          0.13689944	          0.20155207	          0.16874993	          0.13953491	          0.07280685	          0.05815037	          0.07486352	          0.05000746	          0.07574652	          0.16385556	          0.16549395	          0.12475065	          0.14017537	          0.05000175	          0.05000540	          0.08700785	          0.19988413	          0.15092344	          0.11480670	          0.05000028	          0.05000034	          0.38502731	          0.10527068	          0.12415117	          0.05000124	          0.13436703	          0.13420126	          0.11531997	          0.05000034	          0.05000075	          0.05000009	          0.05000019	          0.05000062	          0.05000076	          0.58574830	          0.33720078	          0.18367382	          0.52769870	          0.54870260	          0.24165454	          0.07241647	          0.10001614	          0.06776198	          0.30277850	          0.06426342	          0.05000046	          0.32502159	          0.12742395	          0.07071515	          0.05000730	          0.05000070	          0.05000060	          0.05000119	          0.06988260	          0.11099150	          0.05000765	          0.05000282	          0.05000365	          0.05000161	          0.20547555	          0.07039199	          0.05000224	          0.05000553	          0.05000320	          0.05000179	          0.24821877	          0.51578773	          0.05000043	          0.05000279	          0.05000160	          0.13791663	          0.10730471	          0.10697128	          0.12706887	          0.18172259	          0.24876134	          0.21993012	          0.17431751	          0.16258521	          0.21472280	          0.05000961	          0.07401278	          0.16269686	          0.05000168	          0.10152807	          0.05000220	          0.06442269	          0.05000017	          0.05000020	
